<svg xmlns="http://www.w3.org/2000/svg" viewBox="0 0 375 375" fill="none">
  <path d="M186.242 96.359L125.484 193.316L81.531 264.418L276.734 129.973C280.613 126.094 287.078 126.094 290.957 129.973C294.832 133.852 296.125 140.313 293.539 144.192L209.512 288.98H305.176L267.687 228.219L280.613 206.242L336.203 294.152C337.496 298.027 337.496 301.906 336.203 305.785C333.617 309.664 329.738 312.25 325.859 312.25H190.121C186.242 312.25 182.363 309.664 181.07 305.785C178.484 303.199 178.484 298.027 181.07 295.445L183.656 288.98L248.293 176.512L81.531 291.566L54.383 309.664C49.211 313.543 38.867 312.25 34.992 305.785C33.699 301.906 33.699 298.027 36.285 294.152L106.094 181.68L175.902 67.918C178.484 65.332 182.363 62.75 186.242 62.75C190.121 62.75 192.707 65.332 195.293 67.918L235.367 132.559L215.977 145.484L186.242 96.359Z" fill="#12229d"/>
</svg>
