<svg xmlns="http://www.w3.org/2000/svg" xmlns:xlink="http://www.w3.org/1999/xlink" width="500" zoomAndPan="magnify" viewBox="0 0 375 374.999991" height="500" preserveAspectRatio="xMidYMid meet" version="1.0"><defs><clipPath id="96e372c4a2"><path d="M 34 62.582031 L 337.496094 62.582031 L 337.496094 312.332031 L 34 312.332031 Z M 34 62.582031 " clip-rule="nonzero"/></clipPath></defs><rect x="-37.5" width="450" fill="#ffffff" y="-37.499999" height="449.999989" fill-opacity="1"/><rect x="-37.5" width="450" fill="#ffffff" y="-37.499999" height="449.999989" fill-opacity="1"/><g clip-path="url(#96e372c4a2)"><path fill="#12229d" d="M 186.242188 96.359375 L 125.484375 193.316406 L 81.53125 264.417969 L 276.734375 129.972656 C 280.613281 126.09375 287.078125 126.09375 290.957031 129.972656 C 294.832031 133.851562 296.125 140.3125 293.539062 144.191406 L 209.511719 288.980469 L 305.175781 288.980469 L 267.6875 228.21875 L 280.613281 206.242188 L 336.203125 294.152344 C 337.496094 298.027344 337.496094 301.90625 336.203125 305.785156 C 333.617188 309.664062 329.738281 312.25 325.859375 312.25 L 190.121094 312.25 C 186.242188 312.25 182.363281 309.664062 181.070312 305.785156 C 178.484375 303.199219 178.484375 298.027344 181.070312 295.445312 L 183.65625 288.980469 L 248.292969 176.511719 L 81.53125 291.566406 L 54.382812 309.664062 C 49.210938 313.542969 38.867188 312.25 34.992188 305.785156 C 33.699219 301.90625 33.699219 298.027344 36.285156 294.152344 L 106.09375 181.679688 L 175.902344 67.917969 C 178.484375 65.332031 182.363281 62.75 186.242188 62.75 C 190.121094 62.75 192.707031 65.332031 195.292969 67.917969 L 235.367188 132.558594 L 215.976562 145.484375 Z M 186.242188 96.359375 " fill-opacity="1" fill-rule="nonzero"/></g></svg>